User Type,Username,Date,Text
,LAMMER73,2012-05-21T17:55Z,Звук с TS
,LAMMER73,2012-05-21T18:06Z,"General
Unique ID                      : 171393346649695393040782179722196656834 (0x80F12869641872E58CF83151D64BA2C2)
Complete name                  : D:torentJohn Carter 720p.mkv
Format                         : Matroska
Format version                 : Version 2
File size                      : 6.78 GiB
Duration                       : 2h 12mn
Overall bit rate               : 7 356 Kbps
Encoded date                   : UTC 2012-05-18 20:05:44
Writing application            : mkvmerge v5.0.1 ('Es ist Sommer') built on Oct 24 2011 19:45:06
Writing library                : libebml v1.2.2 + libmatroska v1.3.0

Video
ID                             : 1
Format                         : AVC
Format/Info                    : Advanced Video Codec
Format profile                 : High@L4.1
Format settings, CABAC         : Yes
Format settings, ReFrames      : 12 frames
Codec ID                       : V_MPEG4/ISO/AVC
Duration                       : 2h 12mn
Bit rate                       : 5 500 Kbps
Width                          : 1 280 pixels
Height                         : 534 pixels
Display aspect ratio           : 2.40:1
Frame rate                     : 23.976 fps
Color space                    : YUV
Chroma subsampling             : 4:2:0
Bit depth                      : 8 bits
Scan type                      : Progressive
Bits/(Pixel*Frame)             : 0.336
Stream size                    : 4.96 GiB (73%)
Writing library                : x264 core 124 r2197 69a0443
Encoding settings              : cabac=1 / ref=12 / deblock=1:-3:-3 / analyse=0x3:0x113 / me=umh / subme=10 / psy=1 / psy_rd=1.10:0.00 / mixed_ref=1 / me_range=32 / chroma_me=1 / trellis=2 / 8x8dct=1 / cqm=0 / deadzone=21,11 / fast_pskip=0 / chroma_qp_offset=-2 / threads=18 / sliced_threads=0 / nr=0 / decimate=0 / interlaced=0 / bluray_compat=0 / constrained_intra=0 / bframes=8 / b_pyramid=2 / b_adapt=2 / b_bias=0 / direct=3 / weightb=1 / open_gop=0 / weightp=2 / keyint=240 / keyint_min=24 / scenecut=40 / intra_refresh=0 / rc_lookahead=240 / rc=2pass / mbtree=1 / bitrate=5500 / ratetol=1.0 / qcomp=0.70 / qpmin=0 / qpmax=69 / qpstep=4 / cplxblur=20.0 / qblur=0.5 / ip_ratio=1.40 / aq=1:0.90
Language                       : English
Default                        : Yes
Forced                         : No

Audio #1
ID                             : 2
Format                         : AC-3
Format/Info                    : Audio Coding 3
Mode extension                 : CM (complete main)
Codec ID                       : A_AC3
Duration                       : 2h 12mn
Bit rate mode                  : Constant
Bit rate                       : 320 Kbps
Channel(s)                     : 2 channels
Channel positions              : Front: L R
Sampling rate                  : 48.0 KHz
Bit depth                      : 16 bits
Compression mode               : Lossy
Stream size                    : 302 MiB (4%)
Title                          : Dub
Language                       : Russian
Default                        : Yes
Forced                         : No

Audio #2
ID                             : 3
Format                         : DTS
Format/Info                    : Digital Theater Systems
Codec ID                       : A_DTS
Duration                       : 2h 12mn
Bit rate mode                  : Constant
Bit rate                       : 1 510 Kbps
Channel(s)                     : 6 channels
Channel positions              : Front: L C R, Side: L R, LFE
Sampling rate                  : 48.0 KHz
Bit depth                      : 24 bits
Compression mode               : Lossy
Stream size                    : 1.39 GiB (21%)
Title                          : Eng
Language                       : English
Default                        : No
Forced                         : No

Text #1
ID                             : 4
Format                         : UTF-8
Codec ID                       : S_TEXT/UTF8
Codec ID/Info                  : UTF-8 Plain Text
Title                          : Eng Full
Langu"
,LAMMER73,2012-05-21T19:16Z,"эту не качать, качать вот эту - Джон Картер John Carter 720p"
